{
  "asset": {
    "version": "2.0",
    "generator": "Sketchup glTF Exporter v1.2.6 by Centaur"
  },
  "scene": 0,
  "scenes": [
    {
      "nodes": [
        0
      ]
    }
  ],
  "samplers": [
    {
    }
  ],
  "nodes": [
    {
      "name": "root",
      "mesh": 0
    }
  ],
  "materials": [
    {
      "pbrMetallicRoughness": {
        "baseColorFactor": [
          0.0,
          0.5356,
          1.0,
          1.0
        ],
        "metallicFactor": 0.1,
        "roughnessFactor": 0.9
      },
      "name": "0002_Умеренный красно-фиолетовый"
    },
    {
      "pbrMetallicRoughness": {
        "baseColorFactor": [
          1.0,
          1.0,
          1.0,
          1.0
        ],
        "metallicFactor": 0.1,
        "roughnessFactor": 0.9
      },
      "name": "0006_Розовый",
      "doubleSided": true
    }
  ],
  "meshes": [
    {
      "primitives": [
        {
          "attributes": {
            "POSITION": 0,
            "NORMAL": 1
          },
          "indices": 2,
          "mode": 4,
          "material": 0
        },
        {
          "attributes": {
            "POSITION": 0,
            "NORMAL": 1
          },
          "indices": 3,
          "mode": 4,
          "material": 1
        }
      ]
    }
  ],
  "accessors": [
    {
      "bufferView": 0,
      "componentType": 5126,
      "count": 926,
      "type": "VEC3",
      "min": [
        -0.3335034372863371,
        -0.15418351393563273,
        -0.19669549418831744
      ],
      "max": [
        0.22627770863659344,
        0.19660109389530964,
        0.15408911364262534
      ]
    },
    {
      "bufferView": 1,
      "componentType": 5126,
      "count": 926,
      "type": "VEC3",
      "min": [
        -0.9999995420829672,
        -0.7071067811865566,
        -0.7071067811865476
      ],
      "max": [
        0.9999999987017433,
        0.7071067811865476,
        0.7071067811865495
      ]
    },
    {
      "bufferView": 2,
      "componentType": 5123,
      "count": 1626,
      "type": "SCALAR"
    },
    {
      "bufferView": 2,
      "componentType": 5123,
      "count": 582,
      "type": "SCALAR",
      "byteOffset": 3252
    }
  ],
  "bufferViews": [
    {
      "buffer": 0,
      "byteLength": 11112,
      "target": 34962,
      "byteStride": 12
    },
    {
      "buffer": 0,
      "byteOffset": 11112,
      "byteLength": 11112,
      "target": 34962,
      "byteStride": 12
    },
    {
      "buffer": 0,
      "byteOffset": 22224,
      "byteLength": 4416,
      "target": 34963
    }
  ],
  "buffers": [
    {
      "uri": "data:application/octet-stream;base64,",
      "byteLength": 26640
    }
  ]
}